# xmcd CD database file
#
# Track frame offsets:
#	150
#	14097
#	27367
#	40477
#	55640
#	69082
#	81610
#	95690
#	115742
#	128052
#	142545
#	163050
#	176950
#	189682
#	204632
#	220200
#	235152
#	251022
#	264915
#	280172
#	293902
#	307052
#	322125
#
# Disc length: 4474 seconds
#
# Revision: 1
# Processed by: cddbd v1.4PL0 Copyright (c) Steve Scherf et al.
# Submitted via: CDex 1.50Beta5
#
DISCID=5e117817
DTITLE=Gil Evans - The Real Birth of Cool
DYEAR=1900
DGENRE=Jazz Vocal
TTITLE0=Somebody Nobody Loves
TTITLE1=Smiles
TTITLE2=Buster's last stand
TTITLE3=There's a small hotel
TTITLE4=I don't know why
TTITLE5=Moonlight bay
TTITLE6=Under the willow tree
TTITLE7=Arab dance
TTITLE8=I get tje blues when it rains
TTITLE9=We knew it all the time
TTITLE10=La paloma
TTITLE11=Anthropology
TTITLE12=Sorta kind
TTITLE13=Robin's nest
TTITLE14=Lover man
TTITLE15=Polka Dots and Moonbeams
TTITLE16=The happy stranger
TTITLE17=Donna Lee
TTITLE18=Yardbird suite
TTITLE19=Snowfall
TTITLE20=Early autumn
TTITLE21=Let's call it a day
TTITLE22=Where or when
EXTD=
EXTT0=
EXTT1=
EXTT2=
EXTT3=
EXTT4=
EXTT5=
EXTT6=
EXTT7=
EXTT8=
EXTT9=
EXTT10=
EXTT11=
EXTT12=
EXTT13=
EXTT14=
EXTT15=
EXTT16=
EXTT17=
EXTT18=
EXTT19=
EXTT20=
EXTT21=
EXTT22=
PLAYORDER=
